<svg width="33" height="33" viewBox="0 0 33 33" fill="none" xmlns="http://www.w3.org/2000/svg">
<path d="M27.5 13.75V11C27.5 10.6353 27.3551 10.2856 27.0973 10.0277C26.8394 9.76987 26.4897 9.625 26.125 9.625H24.75V11C24.75 11.3647 24.6051 11.7144 24.3473 11.9723C24.0894 12.2301 23.7397 12.375 23.375 12.375C23.0103 12.375 22.6606 12.2301 22.4027 11.9723C22.1449 11.7144 22 11.3647 22 11V9.625H11V11C11 11.3647 10.8551 11.7144 10.5973 11.9723C10.3394 12.2301 9.98967 12.375 9.625 12.375C9.26033 12.375 8.91059 12.2301 8.65273 11.9723C8.39487 11.7144 8.25 11.3647 8.25 11V9.625H6.875C6.51033 9.625 6.16059 9.76987 5.90273 10.0277C5.64487 10.2856 5.5 10.6353 5.5 11V13.75H27.5ZM27.5 16.5H5.5V24.75C5.5 25.1147 5.64487 25.4644 5.90273 25.7223C6.16059 25.9801 6.51033 26.125 6.875 26.125H26.125C26.4897 26.125 26.8394 25.9801 27.0973 25.7223C27.3551 25.4644 27.5 25.1147 27.5 24.75V16.5ZM24.75 6.875H26.125C27.219 6.875 28.2682 7.3096 29.0418 8.08318C29.8154 8.85677 30.25 9.90598 30.25 11V24.75C30.25 25.844 29.8154 26.8932 29.0418 27.6668C28.2682 28.4404 27.219 28.875 26.125 28.875H6.875C5.78098 28.875 4.73177 28.4404 3.95818 27.6668C3.1846 26.8932 2.75 25.844 2.75 24.75L2.75 11C2.75 9.90598 3.1846 8.85677 3.95818 8.08318C4.73177 7.3096 5.78098 6.875 6.875 6.875H8.25V5.5C8.25 5.13533 8.39487 4.78559 8.65273 4.52773C8.91059 4.26987 9.26033 4.125 9.625 4.125C9.98967 4.125 10.3394 4.26987 10.5973 4.52773C10.8551 4.78559 11 5.13533 11 5.5V6.875H22V5.5C22 5.13533 22.1449 4.78559 22.4027 4.52773C22.6606 4.26987 23.0103 4.125 23.375 4.125C23.7397 4.125 24.0894 4.26987 24.3473 4.52773C24.6051 4.78559 24.75 5.13533 24.75 5.5V6.875Z" fill="#21272A"/>
</svg>
