<svg width="25" height="27" viewBox="0 0 25 27" fill="none" xmlns="http://www.w3.org/2000/svg">
<path fill-rule="evenodd" clip-rule="evenodd" d="M7.78352 4.66439C8.58221 4.59511 9.34044 4.25373 9.95026 3.68885C11.3734 2.37064 13.4664 2.37064 14.8895 3.68885C15.4993 4.25373 16.2576 4.59511 17.0563 4.66439C18.9201 4.82605 20.4001 6.43478 20.5488 8.46067C20.6126 9.32881 20.9266 10.153 21.4463 10.8158C22.6591 12.3627 22.6591 14.6377 21.4463 16.1846C20.9266 16.8474 20.6126 17.6716 20.5488 18.5397C20.4001 20.5656 18.9201 22.1743 17.0563 22.336C16.2576 22.4053 15.4993 22.7467 14.8895 23.3115C13.4664 24.6297 11.3734 24.6297 9.95026 23.3115C9.34044 22.7467 8.58221 22.4053 7.78352 22.336C5.9197 22.1743 4.43968 20.5656 4.29094 18.5397C4.22721 17.6716 3.91314 16.8474 3.39345 16.1846C2.1807 14.6377 2.1807 12.3627 3.39345 10.8158C3.91314 10.153 4.22721 9.32881 4.29094 8.46067C4.43968 6.43478 5.9197 4.82605 7.78352 4.66439ZM17.0241 11.7548C17.5091 11.2276 17.5091 10.3728 17.0241 9.8456C16.5391 9.31839 15.7527 9.31839 15.2677 9.8456L11.1779 14.291L9.57211 12.5456C9.08708 12.0184 8.30069 12.0184 7.81566 12.5456C7.33063 13.0728 7.33063 13.9276 7.81566 14.4548L10.2997 17.1548C10.7847 17.682 11.5711 17.682 12.0561 17.1548L17.0241 11.7548Z" fill="#52D22E"/>
</svg>
