<svg width="33" height="33" viewBox="0 0 33 33" fill="none" xmlns="http://www.w3.org/2000/svg">
<path d="M13.4769 26.6986C16.3861 26.6986 19.1025 25.7612 21.3107 24.1988L29.6176 32.4271C30.0032 32.809 30.5114 33 31.0372 33C32.1763 33 33 32.132 33 31.021C33 30.5003 32.8247 30.0142 32.4392 29.6323L24.1848 21.4387C25.9198 19.182 26.9538 16.3872 26.9538 13.3493C26.9538 6.00631 20.8901 0 13.4769 0C6.0462 0 0 6.00631 0 13.3493C0 20.6923 6.0462 26.6986 13.4769 26.6986ZM13.4769 23.8169C7.67605 23.8169 2.90919 19.0779 2.90919 13.3493C2.90919 7.62073 7.67605 2.88164 13.4769 2.88164C19.2602 2.88164 24.0446 7.62073 24.0446 13.3493C24.0446 19.0779 19.2602 23.8169 13.4769 23.8169Z" fill="#8E8E93"/>
</svg>
