<svg width="29" height="28" viewBox="0 0 29 28" fill="none" xmlns="http://www.w3.org/2000/svg">
<mask id="mask0_76_626" style="mask-type:alpha" maskUnits="userSpaceOnUse" x="-7" y="-7" width="43" height="42">
<rect x="-6.96436" y="-7" width="42" height="42" fill="#D9D9D9"/>
</mask>
<g mask="url(#mask0_76_626)">
<path d="M12.286 28C11.7902 28 11.3746 27.8323 11.0392 27.4969C10.7037 27.1615 10.536 26.7458 10.536 26.25V15.75L0.386029 2.8C-0.0514706 2.21667 -0.117096 1.60417 0.189154 0.9625C0.495404 0.320833 1.0277 0 1.78603 0H26.286C27.0444 0 27.5767 0.320833 27.8829 0.9625C28.1892 1.60417 28.1235 2.21667 27.686 2.8L17.536 15.75V26.25C17.536 26.7458 17.3683 27.1615 17.0329 27.4969C16.6975 27.8323 16.2819 28 15.786 28H12.286ZM14.036 14.525L22.6985 3.5H5.37353L14.036 14.525Z" fill="#1C1B1F"/>
</g>
</svg>
