<svg width="38" height="38" viewBox="0 0 38 38" fill="none" xmlns="http://www.w3.org/2000/svg">
<path fill-rule="evenodd" clip-rule="evenodd" d="M11.9071 6.56422C13.129 6.46672 14.2889 5.98626 15.2218 5.19124C17.3988 3.33599 20.6008 3.33599 22.7778 5.19124C23.7107 5.98626 24.8706 6.46672 26.0925 6.56422C28.9437 6.79175 31.2079 9.05588 31.4354 11.9071C31.5329 13.129 32.0134 14.2889 32.8084 15.2218C34.6636 17.3988 34.6636 20.6008 32.8084 22.7778C32.0134 23.7107 31.5329 24.8706 31.4354 26.0925C31.2079 28.9437 28.9437 31.2079 26.0925 31.4354C24.8706 31.5329 23.7107 32.0134 22.7778 32.8084C20.6008 34.6636 17.3988 34.6636 15.2218 32.8084C14.2889 32.0134 13.129 31.5329 11.9071 31.4354C9.05588 31.2079 6.79175 28.9437 6.56422 26.0925C6.46672 24.8706 5.98626 23.7107 5.19124 22.7778C3.33599 20.6008 3.33599 17.3988 5.19124 15.2218C5.98626 14.2889 6.46672 13.129 6.56422 11.9071C6.79175 9.05588 9.05588 6.79175 11.9071 6.56422ZM26.0433 16.5433C26.7853 15.8013 26.7853 14.5983 26.0433 13.8563C25.3013 13.1143 24.0983 13.1143 23.3563 13.8563L17.0998 20.1128L14.6433 17.6563C13.9013 16.9143 12.6983 16.9143 11.9563 17.6563C11.2143 18.3983 11.2143 19.6013 11.9563 20.3433L15.7563 24.1433C16.4983 24.8853 17.7013 24.8853 18.4433 24.1433L26.0433 16.5433Z" fill="#52D22E"/>
</svg>
