<svg width="31" height="27" viewBox="0 0 31 27" fill="none" xmlns="http://www.w3.org/2000/svg">
<mask id="mask0_76_1358" style="mask-type:alpha" maskUnits="userSpaceOnUse" x="-2" y="-6" width="35" height="35">
<rect x="-1.40909" y="-5.63636" width="33.8182" height="33.8182" fill="#2D333C"/>
</mask>
<g mask="url(#mask0_76_1358)">
<path d="M23.9545 26.7727V22.5455H19.7273V19.7273H23.9545V15.5H26.7727V19.7273H31V22.5455H26.7727V26.7727H23.9545ZM1.40909 22.5455V14.0909H0V11.2727L1.40909 4.22727H22.5455L23.9545 11.2727V14.0909H22.5455V18.3182H19.7273V14.0909H14.0909V22.5455H1.40909ZM4.22727 19.7273H11.2727V14.0909H4.22727V19.7273ZM1.40909 2.81818V0H22.5455V2.81818H1.40909ZM2.88864 11.2727H21.0659L20.2205 7.04545H3.73409L2.88864 11.2727Z" fill="#2D333C"/>
</g>
</svg>
