<svg width="33" height="33" viewBox="0 0 33 33" fill="none" xmlns="http://www.w3.org/2000/svg">
<path d="M16.5 3.09375C9.10787 3.09375 3.09375 9.10787 3.09375 16.5C3.09375 23.8921 9.10787 29.9062 16.5 29.9062C23.8921 29.9062 29.9062 23.8921 29.9062 16.5C29.9062 9.10787 23.8921 3.09375 16.5 3.09375ZM16.6289 9.28125C17.5467 9.28125 18.444 9.55342 19.2071 10.0633C19.9702 10.5733 20.565 11.298 20.9163 12.146C21.2675 12.9939 21.3594 13.927 21.1804 14.8272C21.0013 15.7274 20.5593 16.5543 19.9103 17.2033C19.2613 17.8523 18.4344 18.2943 17.5342 18.4733C16.6341 18.6524 15.701 18.5605 14.853 18.2093C14.0051 17.858 13.2803 17.2632 12.7704 16.5001C12.2604 15.7369 11.9883 14.8397 11.9883 13.9219C11.9883 12.6911 12.4772 11.5107 13.3475 10.6405C14.2178 9.77017 15.3981 9.28125 16.6289 9.28125ZM16.5 27.8438C14.9354 27.8444 13.3876 27.5205 11.9545 26.8926C10.5214 26.2647 9.23411 25.3464 8.17395 24.1957C8.74371 21.245 13.8613 20.625 16.5 20.625C19.1387 20.625 24.2563 21.245 24.8261 24.1951C23.766 25.346 22.4788 26.2645 21.0456 26.8925C19.6125 27.5205 18.0647 27.8444 16.5 27.8438Z" fill="#2D333C"/>
</svg>
