<svg width="378" height="536" viewBox="0 0 378 536" fill="none" xmlns="http://www.w3.org/2000/svg">
<g filter="url(#filter0_dd_76_1111)">
<path d="M0 0H374.042L378 536L371.073 527L364.147 536L356.23 527L348.809 536L339.408 527L330.008 536L318.628 527L308.238 536L297.848 527L286.963 536L275.089 527L263.215 536L249.361 527L236.992 536L224.128 527L212.749 536L201.864 527L189.99 536L179.599 527L169.704 536L159.314 527L149.914 536L139.524 527L129.628 536L120.723 527L111.817 536L101.921 527L93.0157 536L84.1099 527L75.2042 536L65.3089 527L55.9084 536L46.5079 527L38.0969 536L28.2016 527L19.7906 536L9.89529 527L0 536V0Z" fill="white"/>
</g>
<defs>
<filter id="filter0_dd_76_1111" x="-89" y="-71" width="556" height="714" filterUnits="userSpaceOnUse" color-interpolation-filters="sRGB">
<feFlood flood-opacity="0" result="BackgroundImageFix"/>
<feColorMatrix in="SourceAlpha" type="matrix" values="0 0 0 0 0 0 0 0 0 0 0 0 0 0 0 0 0 0 127 0" result="hardAlpha"/>
<feMorphology radius="1" operator="dilate" in="SourceAlpha" result="effect1_dropShadow_76_1111"/>
<feOffset dy="18"/>
<feGaussianBlur stdDeviation="44"/>
<feColorMatrix type="matrix" values="0 0 0 0 0.0941176 0 0 0 0 0.152941 0 0 0 0 0.294118 0 0 0 0.05 0"/>
<feBlend mode="normal" in2="BackgroundImageFix" result="effect1_dropShadow_76_1111"/>
<feColorMatrix in="SourceAlpha" type="matrix" values="0 0 0 0 0 0 0 0 0 0 0 0 0 0 0 0 0 0 127 0" result="hardAlpha"/>
<feMorphology radius="6" operator="erode" in="SourceAlpha" result="effect2_dropShadow_76_1111"/>
<feOffset dy="8"/>
<feGaussianBlur stdDeviation="14"/>
<feColorMatrix type="matrix" values="0 0 0 0 0.321569 0 0 0 0 0.823529 0 0 0 0 0.180392 0 0 0 0.03 0"/>
<feBlend mode="normal" in2="effect1_dropShadow_76_1111" result="effect2_dropShadow_76_1111"/>
<feBlend mode="normal" in="SourceGraphic" in2="effect2_dropShadow_76_1111" result="shape"/>
</filter>
</defs>
</svg>
