<svg width="33" height="33" viewBox="0 0 33 33" fill="none" xmlns="http://www.w3.org/2000/svg">
<path d="M18.307 16.3627L23.1676 11.5007C23.2989 11.3739 23.4037 11.2222 23.4758 11.0544C23.5478 10.8867 23.5857 10.7062 23.5873 10.5237C23.5889 10.3411 23.5541 10.16 23.485 9.99105C23.4159 9.82207 23.3138 9.66855 23.1847 9.53945C23.0556 9.41034 22.902 9.30825 22.7331 9.23911C22.5641 9.16997 22.383 9.13518 22.2004 9.13677C22.0179 9.13836 21.8374 9.17629 21.6697 9.24835C21.5019 9.32041 21.3502 9.42516 21.2234 9.55649L16.3614 14.4171L11.5007 9.55649C11.3739 9.42516 11.2222 9.32041 11.0544 9.24835C10.8867 9.17629 10.7062 9.13836 10.5237 9.13677C10.3411 9.13518 10.16 9.16997 9.99105 9.23911C9.82207 9.30825 9.66855 9.41034 9.53945 9.53945C9.41034 9.66855 9.30825 9.82207 9.23911 9.99105C9.16997 10.16 9.13518 10.3411 9.13677 10.5237C9.13836 10.7062 9.17629 10.8867 9.24835 11.0544C9.32041 11.2222 9.42516 11.3739 9.55649 11.5007L14.4171 16.3614L9.55649 21.2234C9.42516 21.3502 9.32041 21.5019 9.24835 21.6697C9.17629 21.8374 9.13836 22.0179 9.13677 22.2004C9.13518 22.383 9.16997 22.5641 9.23911 22.7331C9.30825 22.902 9.41034 23.0556 9.53945 23.1847C9.66855 23.3138 9.82207 23.4159 9.99105 23.485C10.16 23.5541 10.3411 23.5889 10.5237 23.5873C10.7062 23.5857 10.8867 23.5478 11.0544 23.4758C11.2222 23.4037 11.3739 23.2989 11.5007 23.1676L16.3614 18.307L21.2234 23.1676C21.3502 23.2989 21.5019 23.4037 21.6697 23.4758C21.8374 23.5478 22.0179 23.5857 22.2004 23.5873C22.383 23.5889 22.5641 23.5541 22.7331 23.485C22.902 23.4159 23.0556 23.3138 23.1847 23.1847C23.3138 23.0556 23.4159 22.902 23.485 22.7331C23.5541 22.5641 23.5889 22.383 23.5873 22.2004C23.5857 22.0179 23.5478 21.8374 23.4758 21.6697C23.4037 21.5019 23.2989 21.3502 23.1676 21.2234L18.307 16.3614V16.3627Z" fill="#21272A"/>
</svg>
