<svg width="28" height="28" viewBox="0 0 28 28" fill="none" xmlns="http://www.w3.org/2000/svg">
<mask id="mask0_76_1346" style="mask-type:alpha" maskUnits="userSpaceOnUse" x="-5" y="-3" width="35" height="34">
<rect x="-4.2" y="-2.8" width="33.6" height="33.6" fill="#2D333C"/>
</mask>
<g mask="url(#mask0_76_1346)">
<path d="M8.4 9.8V7H21V9.8H8.4ZM8.4 14V11.2H21V14H8.4ZM12.6 28H4.2C3.03333 28 2.04167 27.5917 1.225 26.775C0.408333 25.9583 0 24.9667 0 23.8V19.6H4.2V0H25.2V12.635C24.7333 12.5883 24.2608 12.6058 23.7825 12.6875C23.3042 12.7692 22.8433 12.915 22.4 13.125V2.8H7V19.6H15.4L12.6 22.4H2.8V23.8C2.8 24.1967 2.93417 24.5292 3.2025 24.7975C3.47083 25.0658 3.80333 25.2 4.2 25.2H12.6V28ZM15.4 28V23.695L23.135 15.995C23.345 15.785 23.5783 15.6333 23.835 15.54C24.0917 15.4467 24.3483 15.4 24.605 15.4C24.885 15.4 25.1533 15.4525 25.41 15.5575C25.6667 15.6625 25.9 15.82 26.11 16.03L27.405 17.325C27.5917 17.535 27.7375 17.7683 27.8425 18.025C27.9475 18.2817 28 18.5383 28 18.795C28 19.0517 27.9533 19.3142 27.86 19.5825C27.7667 19.8508 27.615 20.09 27.405 20.3L19.705 28H15.4ZM17.5 25.9H18.83L23.065 21.63L22.435 20.965L21.77 20.335L17.5 24.57V25.9ZM22.435 20.965L21.77 20.335L23.065 21.63L22.435 20.965Z" fill="#2D333C"/>
</g>
</svg>
