<svg width="25" height="25" viewBox="0 0 25 25" fill="none" xmlns="http://www.w3.org/2000/svg">
<mask id="mask0_72_171" style="mask-type:alpha" maskUnits="userSpaceOnUse" x="-4" y="-3" width="31" height="31">
<rect x="-3.75" y="-2.5" width="30.0001" height="30.0001" fill="#52D22E"/>
</mask>
<g mask="url(#mask0_72_171)">
<path d="M20.0001 21.7814L17.3438 24.4064L15.5938 22.6564L18.2188 20.0001L15.5938 17.3438L17.3438 15.5938L20.0001 18.2188L22.6564 15.5938L24.4064 17.3438L21.7814 20.0001L24.4064 22.6564L22.6564 24.4064L20.0001 21.7814ZM3.75002 25.0001C2.70835 25.0001 1.82293 24.6355 1.09376 23.9064C0.364585 23.1772 0 22.2918 0 21.2501V17.5001H3.75002V0H22.5001V12.9688C22.1043 12.823 21.698 12.7136 21.2813 12.6407C20.8647 12.5678 20.4376 12.5313 20.0001 12.5313V2.50001H6.25003V17.5001H12.9376C12.7917 17.8959 12.6824 18.3022 12.6094 18.7188C12.5365 19.1355 12.5001 19.5626 12.5001 20.0001H2.50001V21.2501C2.50001 21.6043 2.6198 21.9011 2.85939 22.1407C3.09897 22.3803 3.39585 22.5001 3.75002 22.5001H12.9376C13.1042 22.9793 13.3126 23.4272 13.5626 23.8439C13.8126 24.2605 14.1042 24.6459 14.4376 25.0001H3.75002ZM7.50003 8.75004V6.25003H18.7501V8.75004H7.50003ZM7.50003 12.5001V10H18.7501V12.5001H7.50003Z" fill="#52D22E"/>
</g>
<mask id="mask1_72_171" style="mask-type:alpha" maskUnits="userSpaceOnUse" x="-9" y="-7" width="40" height="40">
<rect x="-8.96753" y="-6.41309" width="39.1306" height="39.1306" fill="#52D22E"/>
</mask>
<g mask="url(#mask1_72_171)">
</g>
</svg>
