<svg width="27" height="28" viewBox="0 0 27 28" fill="none" xmlns="http://www.w3.org/2000/svg">
<mask id="mask0_76_1355" style="mask-type:alpha" maskUnits="userSpaceOnUse" x="-6" y="-2" width="34" height="35">
<rect x="-5.6" y="-1.4" width="33.6" height="33.6" fill="#D9D9D9"/>
</mask>
<g mask="url(#mask0_76_1355)">
<path d="M18.9 25.2H20.3V21.7H23.8V20.3H20.3V16.8H18.9V20.3H15.4V21.7H18.9V25.2ZM19.6 28C17.6633 28 16.0125 27.3175 14.6475 25.9525C13.2825 24.5875 12.6 22.9367 12.6 21C12.6 19.0633 13.2825 17.4125 14.6475 16.0475C16.0125 14.6825 17.6633 14 19.6 14C21.5367 14 23.1875 14.6825 24.5525 16.0475C25.9175 17.4125 26.6 19.0633 26.6 21C26.6 22.9367 25.9175 24.5875 24.5525 25.9525C23.1875 27.3175 21.5367 28 19.6 28ZM0 25.2V8.4L11.2 0L22.4 8.4V11.62C21.9567 11.48 21.5017 11.375 21.035 11.305C20.5683 11.235 20.09 11.2 19.6 11.2V9.8L11.2 3.5L2.8 9.8V22.4H9.905C9.975 22.89 10.08 23.3683 10.22 23.835C10.36 24.3017 10.535 24.7567 10.745 25.2H0Z" fill="#52D22E"/>
</g>
</svg>
