<svg width="29" height="25" viewBox="0 0 29 25" fill="none" xmlns="http://www.w3.org/2000/svg">
<mask id="mask0_76_1328" style="mask-type:alpha" maskUnits="userSpaceOnUse" x="-5" y="-5" width="34" height="34">
<rect x="-4.14286" y="-4.14286" width="33.1429" height="33.1429" fill="#D9D9D9"/>
</mask>
<g mask="url(#mask0_76_1328)">
<path d="M23.6833 13.8095H6.90476V11.0476H23.6833L21.5429 8.90714L23.4762 6.90476L29 12.4286L23.4762 17.9524L21.5429 15.95L23.6833 13.8095ZM16.5714 8.28571V2.7619H2.7619V22.0952H16.5714V16.5714H19.3333V22.0952C19.3333 22.8548 19.0629 23.505 18.522 24.0458C17.9812 24.5867 17.331 24.8571 16.5714 24.8571H2.7619C2.00238 24.8571 1.35218 24.5867 0.81131 24.0458C0.270437 23.505 0 22.8548 0 22.0952V2.7619C0 2.00238 0.270437 1.35218 0.81131 0.81131C1.35218 0.270437 2.00238 0 2.7619 0H16.5714C17.331 0 17.9812 0.270437 18.522 0.81131C19.0629 1.35218 19.3333 2.00238 19.3333 2.7619V8.28571H16.5714Z" fill="#2D333C"/>
</g>
</svg>
