<svg width="25" height="28" viewBox="0 0 25 28" fill="none" xmlns="http://www.w3.org/2000/svg">
<mask id="mask0_76_583" style="mask-type:alpha" maskUnits="userSpaceOnUse" x="-5" y="-3" width="35" height="34">
<rect x="-4.16667" y="-2.77827" width="33.3333" height="33.3333" fill="#52D22E"/>
</mask>
<g mask="url(#mask0_76_583)">
<path d="M4.16667 27.7778C3.00926 27.7778 2.02546 27.3727 1.21528 26.5625C0.405093 25.7523 0 24.7685 0 23.6111V19.4444H4.16667V0L6.25 2.08333L8.33333 0L10.4167 2.08333L12.5 0L14.5833 2.08333L16.6667 0L18.75 2.08333L20.8333 0L22.9167 2.08333L25 0V23.6111C25 24.7685 24.5949 25.7523 23.7847 26.5625C22.9745 27.3727 21.9907 27.7778 20.8333 27.7778H4.16667ZM20.8333 25C21.2269 25 21.5567 24.8669 21.8229 24.6007C22.0891 24.3345 22.2222 24.0046 22.2222 23.6111V4.16667H6.94444V19.4444H19.4444V23.6111C19.4444 24.0046 19.5775 24.3345 19.8438 24.6007C20.11 24.8669 20.4398 25 20.8333 25ZM8.33333 9.72222V6.94444H16.6667V9.72222H8.33333ZM8.33333 13.8889V11.1111H16.6667V13.8889H8.33333ZM19.4444 9.72222C19.0509 9.72222 18.7211 9.58912 18.4549 9.32292C18.1887 9.05671 18.0556 8.72685 18.0556 8.33333C18.0556 7.93982 18.1887 7.60995 18.4549 7.34375C18.7211 7.07755 19.0509 6.94444 19.4444 6.94444C19.838 6.94444 20.1678 7.07755 20.434 7.34375C20.7002 7.60995 20.8333 7.93982 20.8333 8.33333C20.8333 8.72685 20.7002 9.05671 20.434 9.32292C20.1678 9.58912 19.838 9.72222 19.4444 9.72222ZM19.4444 13.8889C19.0509 13.8889 18.7211 13.7558 18.4549 13.4896C18.1887 13.2234 18.0556 12.8935 18.0556 12.5C18.0556 12.1065 18.1887 11.7766 18.4549 11.5104C18.7211 11.2442 19.0509 11.1111 19.4444 11.1111C19.838 11.1111 20.1678 11.2442 20.434 11.5104C20.7002 11.7766 20.8333 12.1065 20.8333 12.5C20.8333 12.8935 20.7002 13.2234 20.434 13.4896C20.1678 13.7558 19.838 13.8889 19.4444 13.8889ZM4.16667 25H16.6667V22.2222H2.77778V23.6111C2.77778 24.0046 2.91088 24.3345 3.17708 24.6007C3.44329 24.8669 3.77315 25 4.16667 25Z" fill="#52D22E"/>
</g>
</svg>
