<svg width="20" height="20" viewBox="0 0 20 20" fill="none" xmlns="http://www.w3.org/2000/svg">
<path fill-rule="evenodd" clip-rule="evenodd" d="M10 20C15.5228 20 20 15.5228 20 10C20 4.47715 15.5228 0 10 0C4.47715 0 0 4.47715 0 10C0 15.5228 4.47715 20 10 20ZM11 5C11 4.44772 10.5523 4 10 4C9.44771 4 9 4.44772 9 5V10C9 10.2652 9.10536 10.5196 9.29289 10.7071L12.8284 14.2426C13.219 14.6332 13.8521 14.6332 14.2426 14.2426C14.6332 13.8521 14.6332 13.219 14.2426 12.8284L11 9.58579V5Z" fill="white"/>
</svg>
