<svg width="30" height="22" viewBox="0 0 30 22" fill="none" xmlns="http://www.w3.org/2000/svg">
<mask id="mask0_72_167" style="mask-type:alpha" maskUnits="userSpaceOnUse" x="-4" y="-8" width="38" height="38">
<rect x="-3.66671" y="-7.33317" width="36.6668" height="36.6668" fill="#D9D9D9"/>
</mask>
<g mask="url(#mask0_72_167)">
<path d="M17.3334 12.3751C16.2223 12.3751 15.2778 11.974 14.5001 11.1719C13.7223 10.3698 13.3334 9.39587 13.3334 8.25004C13.3334 7.1042 13.7223 6.13024 14.5001 5.32815C15.2778 4.52606 16.2223 4.12502 17.3334 4.12502C18.4445 4.12502 19.389 4.52606 20.1668 5.32815C20.9445 6.13024 21.3334 7.1042 21.3334 8.25004C21.3334 9.39587 20.9445 10.3698 20.1668 11.1719C19.389 11.974 18.4445 12.3751 17.3334 12.3751ZM8.00004 16.5001C7.2667 16.5001 6.63892 16.2308 6.11669 15.6923C5.59447 15.1537 5.33336 14.5063 5.33336 13.7501V2.75001C5.33336 1.99376 5.59447 1.34636 6.11669 0.807816C6.63892 0.269272 7.2667 0 8.00004 0H26.6668C27.4001 0 28.0279 0.269272 28.5501 0.807816C29.0724 1.34636 29.3335 1.99376 29.3335 2.75001V13.7501C29.3335 14.5063 29.0724 15.1537 28.5501 15.6923C28.0279 16.2308 27.4001 16.5001 26.6668 16.5001H8.00004ZM10.6667 13.7501H24.0001C24.0001 12.9938 24.2612 12.3464 24.7834 11.8079C25.3057 11.2693 25.9334 11 26.6668 11V5.50002C25.9334 5.50002 25.3057 5.23075 24.7834 4.69221C24.2612 4.15366 24.0001 3.50627 24.0001 2.75001H10.6667C10.6667 3.50627 10.4056 4.15366 9.88338 4.69221C9.36115 5.23075 8.73337 5.50002 8.00004 5.50002V11C8.73337 11 9.36115 11.2693 9.88338 11.8079C10.4056 12.3464 10.6667 12.9938 10.6667 13.7501ZM25.3334 22.0001H2.66668C1.93334 22.0001 1.30556 21.7308 0.783337 21.1923C0.261112 20.6537 0 20.0063 0 19.2501V4.12502H2.66668V19.2501H25.3334V22.0001Z" fill="#52D22E"/>
</g>
</svg>
