<svg width="33" height="33" viewBox="0 0 33 33" fill="none" xmlns="http://www.w3.org/2000/svg">
<path d="M12.375 5.5V4.125C12.375 3.76033 12.5199 3.41059 12.7777 3.15273C13.0356 2.89487 13.3853 2.75 13.75 2.75H19.25C19.6147 2.75 19.9644 2.89487 20.2223 3.15273C20.4801 3.41059 20.625 3.76033 20.625 4.125V5.5H26.125C26.8543 5.5 27.5538 5.78973 28.0695 6.30546C28.5853 6.82118 28.875 7.52065 28.875 8.25V9.625C28.875 10.3543 28.5853 11.0538 28.0695 11.5695C27.5538 12.0853 26.8543 12.375 26.125 12.375H25.9421L25.0071 26.4C24.9374 27.444 24.4735 28.4225 23.7094 29.1373C22.9453 29.8521 21.9381 30.2499 20.8918 30.25H12.1357C11.0903 30.25 10.0839 29.853 9.3199 29.1393C8.55594 28.4257 8.09147 27.4485 8.02038 26.4055L7.06337 12.375H6.875C6.14565 12.375 5.44618 12.0853 4.93046 11.5695C4.41473 11.0538 4.125 10.3543 4.125 9.625V8.25C4.125 7.52065 4.41473 6.82118 4.93046 6.30546C5.44618 5.78973 6.14565 5.5 6.875 5.5H12.375ZM26.125 8.25H6.875V9.625H26.125V8.25ZM9.81887 12.375L10.7635 26.2185C10.7872 26.5663 10.9421 26.892 11.1968 27.1299C11.4516 27.3678 11.7872 27.5001 12.1357 27.5H20.8918C21.2408 27.5001 21.5767 27.3674 21.8315 27.1289C22.0864 26.8904 22.241 26.564 22.264 26.2157L23.1853 12.375H9.82025H9.81887ZM13.75 13.75C14.1147 13.75 14.4644 13.8949 14.7223 14.1527C14.9801 14.4106 15.125 14.7603 15.125 15.125V24.75C15.125 25.1147 14.9801 25.4644 14.7223 25.7223C14.4644 25.9801 14.1147 26.125 13.75 26.125C13.3853 26.125 13.0356 25.9801 12.7777 25.7223C12.5199 25.4644 12.375 25.1147 12.375 24.75V15.125C12.375 14.7603 12.5199 14.4106 12.7777 14.1527C13.0356 13.8949 13.3853 13.75 13.75 13.75ZM19.25 13.75C19.6147 13.75 19.9644 13.8949 20.2223 14.1527C20.4801 14.4106 20.625 14.7603 20.625 15.125V24.75C20.625 25.1147 20.4801 25.4644 20.2223 25.7223C19.9644 25.9801 19.6147 26.125 19.25 26.125C18.8853 26.125 18.5356 25.9801 18.2777 25.7223C18.0199 25.4644 17.875 25.1147 17.875 24.75V15.125C17.875 14.7603 18.0199 14.4106 18.2777 14.1527C18.5356 13.8949 18.8853 13.75 19.25 13.75Z" fill="#21272A"/>
</svg>
